name analog
datacolumns 19
datarows 27
range 0.1635 0.1765
endheader
time	ground_force_vx	ground_force_vy	ground_force_vz	ground_force_px	ground_force_py	ground_force_pz	l_ground_force_vx	l_ground_force_vy	l_ground_force_vz	l_ground_force_px	l_ground_force_py	l_ground_force_pz	ground_torque_x	ground_torque_y	ground_torque_z	l_ground_torque_x	l_ground_torque_y	l_ground_torque_z
0.1635	-0.0	-0.0	-0.0	2.51207971572876	-5.15539026260376	-723.340576171875	-0.0	-0.0	-0.0	-35.081546783447266	15.84856414794922	76.1566162109375	-0.0	-0.0	-0.0	-0.0	-0.0	-0.0
0.164	-0.0	-0.0	-0.0	1.7701754570007324	-4.312307834625244	-723.1498413085938	-0.0	-0.0	-0.0	-34.88196563720703	16.028627395629883	76.9669189453125	-0.0	-0.0	-0.0	-0.0	-0.0	-0.0
0.1645	-0.0	-0.0	-0.0	0.9193552732467652	-2.8249471187591557	-721.6544799804688	-0.0	-0.0	-0.0	-34.92338562011719	16.069782257080078	75.83219909667969	-0.0	-0.0	-0.0	-0.0	-0.0	-0.0
0.165	-0.0	-0.0	-0.0	0.0753945410251617	-1.7757062911987305	-721.0841064453125	-0.0	-0.0	-0.0	-35.198543548583984	16.14616584777832	75.99433898925781	-0.0	-0.0	-0.0	-0.0	-0.0	-0.0
0.1655	-0.0	-0.0	-0.0	-0.2264425754547119	-0.8433255553245544	-719.5364990234375	-0.0	-0.0	-0.0	-34.76459503173828	16.159587860107422	75.7795639038086	-0.0	-0.0	-0.0	-0.0	-0.0	-0.0
0.166	-0.0	-0.0	-0.0	-0.5764896869659424	0.2194504141807556	-716.358642578125	-0.0	-0.0	-0.0	-34.6684455871582	16.139625549316406	74.7528076171875	-0.0	-0.0	-0.0	-0.0	-0.0	-0.0
0.1665	-0.0	-0.0	-0.0	-1.3794071674346924	1.0561537742614746	-714.3197631835938	-0.0	-0.0	-0.0	-34.94333267211914	16.194534301757812	75.96833038330078	-0.0	-0.0	-0.0	-0.0	-0.0	-0.0
0.167	-0.0	-0.0	-0.0	-1.447276592254639	2.200270414352417	-710.3294677734375	-0.0	-0.0	-0.0	-34.99117660522461	16.06282615661621	75.61752319335938	-0.0	-0.0	-0.0	-0.0	-0.0	-0.0
0.1675	-0.0	-0.0	-0.0	-1.9475494623184204	2.5153160095214844	-709.8656616210938	-0.0	-0.0	-0.0	-34.86966323852539	16.008176803588867	74.58985137939453	-0.0	-0.0	-0.0	-0.0	-0.0	-0.0
0.168	-0.0	-0.0	-0.0	-1.921285629272461	2.4413161277771	-706.7130126953125	-0.0	-0.0	-0.0	-34.61408615112305	16.1173152923584	75.24192810058594	-0.0	-0.0	-0.0	-0.0	-0.0	-0.0
0.1685	-0.0	-0.0	-0.0	-1.5036909580230713	2.721696376800537	-703.319580078125	-0.0	-0.0	-0.0	-35.0967903137207	15.953861236572266	75.83023834228516	-0.0	-0.0	-0.0	-0.0	-0.0	-0.0
0.169	-0.0	-0.0	-0.0	-0.5894210338592529	2.6452536582946777	-701.7180786132812	-0.0	-0.0	-0.0	-34.74533462524414	15.8765287399292	76.1566162109375	-0.0	-0.0	-0.0	-0.0	-0.0	-0.0
0.1695	-0.0	-0.0	-0.0	1.0003210306167605	2.1201412677764893	-698.2366943359375	-0.0	-0.0	-0.0	-34.97826385498047	15.924625396728516	75.96907043457031	-0.0	-0.0	-0.0	-0.0	-0.0	-0.0
0.17	-0.0	-0.0	-0.0	2.7843050956726074	2.203243494033813	-696.257080078125	-0.0	-0.0	-0.0	-34.7515754699707	16.068750381469727	75.57056427001953	-0.0	-0.0	-0.0	-0.0	-0.0	-0.0
0.1705	-0.0	-0.0	-0.0	4.00210428237915	1.3475375175476074	-696.3065185546875	-0.0	-0.0	-0.0	-34.66815948486328	16.272428512573242	76.36742401123047	-0.0	-0.0	-0.0	-0.0	-0.0	-0.0
0.171	-0.0	-0.0	-0.0	4.900444507598877	0.1245037466287612	-699.7896118164062	-0.0	-0.0	-0.0	-34.71583938598633	16.050600051879883	75.64186096191406	-0.0	-0.0	-0.0	-0.0	-0.0	-0.0
0.1715	-0.0	-0.0	-0.0	4.145248889923096	-1.4564557075500488	-703.6066284179688	-0.0	-0.0	-0.0	-35.02593994140625	16.194534301757812	74.98612976074219	-0.0	-0.0	-0.0	-0.0	-0.0	-0.0
0.17200000000000001	-0.0	-0.0	-0.0	2.051841735839844	-2.584781646728516	-704.9708862304688	-0.0	-0.0	-0.0	-34.8586311340332	16.332416534423828	75.4547119140625	-0.0	-0.0	-0.0	-0.0	-0.0	-0.0
0.17250000000000001	-0.0	-0.0	-0.0	0.0238552987575531	-3.0720372200012207	-706.736572265625	-0.0	-0.0	-0.0	-34.91916275024414	16.518098831176758	76.34336853027344	-0.0	-0.0	-0.0	-0.0	-0.0	-0.0
0.17300000000000001	-0.0	-0.0	-0.0	-2.027867555618286	-3.612725973129273	-708.1024780273438	-0.0	-0.0	-0.0	-34.75175857543945	16.045215606689453	76.41053771972656	-0.0	-0.0	-0.0	-0.0	-0.0	-0.0
0.17350000000000002	-0.0	-0.0	-0.0	-3.8176331520080566	-4.069968223571777	-709.5155029296875	-0.0	-0.0	-0.0	-34.8831672668457	16.278833389282227	76.55180358886719	-0.0	-0.0	-0.0	-0.0	-0.0	-0.0
0.17400000000000002	-0.0	-0.0	-0.0	-5.572784900665283	-4.2193474769592285	-713.776611328125	-0.0	-0.0	-0.0	-35.115230560302734	16.067970275878906	75.94841003417969	-0.0	-0.0	-0.0	-0.0	-0.0	-0.0
0.17450000000000002	-0.0	-0.0	-0.0	-7.630354404449463	-4.551356315612793	-719.8485107421875	-0.0	-0.0	-0.0	-34.52544403076172	16.03127670288086	75.08206939697266	-0.0	-0.0	-0.0	-0.0	-0.0	-0.0
0.17500000000000002	-0.0	-0.0	-0.0	-10.002848625183104	-4.509531497955322	-725.4761962890625	-0.0	-0.0	-0.0	-34.93626022338867	16.475412368774414	75.64088439941406	-0.0	-0.0	-0.0	-0.0	-0.0	-0.0
0.17550000000000002	-0.0	-0.0	-0.0	-11.987570762634276	-4.974636554718018	-731.645263671875	-0.0	-0.0	-0.0	-34.562252044677734	16.189125061035156	75.99169158935547	-0.0	-0.0	-0.0	-0.0	-0.0	-0.0
0.176	-0.0	-0.0	-0.0	-14.017059326171877	-5.757160663604736	-738.0239868164062	-0.0	-0.0	-0.0	-34.70988464355469	15.913920402526855	76.1566162109375	-0.0	-0.0	-0.0	-0.0	-0.0	-0.0
0.1765	-0.0	-0.0	-0.0	-15.123896598815918	-6.553796768188477	-746.874267578125	-0.0	-0.0	-0.0	-34.930908203125	15.83465576171875	75.9914321899414	-0.0	-0.0	-0.0	-0.0	-0.0	-0.0
